<svg width="197" height="83" viewBox="0 0 197 83" fill="none" xmlns="http://www.w3.org/2000/svg">
<mask id="mask0_19_60" style="mask-type:alpha" maskUnits="userSpaceOnUse" x="0" y="0" width="197" height="83">
<rect width="197" height="83" transform="matrix(-1 0 0 1 197 0)" fill="#1E1E1E"/>
</mask>
<g mask="url(#mask0_19_60)">
<path d="M190.926 55.5983L190.922 55.5874L190.918 55.5766L190.913 55.5644L189.517 56.1144L190.913 55.5644C189.887 52.9797 188.864 50.401 187.934 48.0141L187.922 47.9824L187.908 47.9513C185.582 42.6975 182.748 39.1335 178.954 38.2188C175.136 37.2981 171.077 39.23 166.763 43.0149C163.721 45.6587 160.987 48.8694 158.365 51.9484C157.18 53.3398 156.018 54.7044 154.861 55.9776L154.85 55.9902L154.839 56.0031C149.241 62.4523 144.19 65.743 138.987 66.3864C133.785 67.0299 128.046 65.0741 120.96 60.1207C110.311 52.6761 101.576 43.3895 95.1128 32.0746C95.1114 32.072 95.1099 32.0695 95.1084 32.0669L95.0186 31.9049L94.9861 31.8465C93.0647 28.3869 90.9755 24.6252 88.4829 21.4976L88.478 21.4914L88.473 21.4852C86.3255 18.8482 83.9977 17.0767 81.3876 17.047C78.7428 17.0169 76.4761 18.7733 74.4581 21.4804C70.9538 25.9227 68.1352 30.8306 65.3614 35.6604C64.7087 36.7968 64.0585 37.9289 63.4025 39.0496C62.3211 40.7976 61.3569 42.6183 60.4182 44.3909C60.237 44.7329 60.0569 45.0732 59.877 45.4107C58.7508 47.5241 57.6226 49.5604 56.2783 51.4641C50.7135 59.1666 43.276 63.3518 33.7973 61.5634C26.2477 60.0612 18.5973 57.8946 11.2228 55.3484C10.379 55.057 9.47837 54.8082 8.6587 54.5817C8.26484 54.4728 7.88967 54.3692 7.54848 54.2684C6.41853 53.9348 5.52298 53.6001 4.82577 53.1372C4.17033 52.7019 3.68105 52.1471 3.3767 51.3055C3.05816 50.4247 2.9074 49.1306 3.14101 47.18C3.14505 47.1462 3.14399 47.1302 3.15055 47.1184C3.15806 47.1049 3.17561 47.0969 3.22238 47.074C3.40623 46.984 3.78442 46.9006 4.40877 46.9117C5.62856 46.9333 7.12609 47.2922 8.22072 47.5899L8.22512 47.5913C16.0212 49.9648 23.8786 52.357 31.9423 54.1776L31.9485 54.179C36.1293 55.1045 39.827 54.5893 42.9938 52.885C46.1336 51.1952 48.632 48.402 50.5727 44.9641L50.5802 44.9509L50.5874 44.9375C51.9672 42.3726 53.236 39.7693 54.4839 37.2088C54.659 36.8495 54.8337 36.4911 55.0082 36.1337C56.4304 33.2214 57.846 30.3714 59.4191 27.626C59.741 27.0886 60.0603 26.5521 60.3783 26.0176C63.0736 21.4882 65.6815 17.1056 69.0803 13.6194L69.0935 13.6058L69.1064 13.5918C73.0655 9.31904 77.6043 7.39673 81.9601 7.56357C86.3172 7.73047 90.7379 9.99734 94.4392 14.5891L94.4416 14.592C97.9382 18.9071 100.893 23.9904 103.606 29.059L103.613 29.0712L103.62 29.0833C109.39 39.4011 117.515 47.573 126.973 54.0821L126.98 54.0865L126.986 54.0908C130.926 56.7428 134.211 58.1852 137.474 57.7576C140.725 57.3314 143.517 55.1028 146.633 51.6751C148.117 50.0593 149.539 48.4309 150.945 46.8219C154.502 42.751 157.95 38.804 162.01 35.4974L162.031 35.4807L162.051 35.4634C165.448 32.4918 170.351 30.5321 175.175 29.57L175.182 29.5685L175.19 29.5669C179.199 28.7246 182.707 29.1999 185.658 30.7193C188.616 32.2424 191.13 34.8743 193.034 38.5351C193.512 39.5119 193.991 40.4545 194.461 41.3793C196.048 44.5033 197.532 47.423 198.499 50.7633L198.499 72.4739C198.033 71.4864 197.555 70.4854 197.071 69.4725C196.822 68.9521 196.572 68.4287 196.321 67.9023C194.463 64.0016 192.558 59.9066 190.926 55.5983Z" fill="#123AC8" stroke="#F7F3EE" stroke-width="3"/>
</g>
</svg>
