<svg width="232" height="53" viewBox="0 0 232 53" fill="none" xmlns="http://www.w3.org/2000/svg">
<path d="M1.17999 1.45704H0.679993V1.95704V50.9867V51.4867H1.17999H11.9776H12.4776V50.9867V30.5792H32.4072V50.9867V51.4867H32.9072H43.7788H44.2788V50.9867V1.95704V1.45704H43.7788H32.9072H32.4072V1.95704V20.4505H12.4776V1.95704V1.45704H11.9776H1.17999ZM54.4908 40.1039L54.4932 40.1083C56.6073 44.0166 59.5572 47.0547 63.338 49.2124C67.121 51.3715 71.4734 52.4438 76.3803 52.4438C81.2871 52.4438 85.6395 51.3715 89.4226 49.2125L89.4268 49.2099C93.2062 47.0029 96.1312 43.94 98.1958 40.0302L98.197 40.0279C100.261 36.0689 101.286 31.5212 101.286 26.3983C101.286 21.372 100.26 16.9206 98.1945 13.0584C96.1289 9.19671 93.2019 6.20672 89.4204 4.09821C85.6379 1.94 81.2862 0.86809 76.3803 0.86809C71.4251 0.86809 67.0478 1.93997 63.264 4.09941C59.4822 6.25773 56.5559 9.29731 54.4908 13.208C52.4258 17.1186 51.4007 21.6181 51.4007 26.6927C51.4007 31.7192 52.4261 36.1939 54.4908 40.1039ZM85.6878 37.9266L85.6846 37.9305C83.3713 40.7032 80.2871 42.0943 76.3803 42.0943C73.805 42.0943 71.5604 41.4548 69.6285 40.1884C67.6929 38.9195 66.1738 37.1303 65.0753 34.8021C64.0259 32.4739 63.4942 29.7745 63.4942 26.6927C63.4942 23.6101 64.0262 20.9101 65.0761 18.5814C66.175 16.2043 67.6924 14.4194 69.6213 13.2017L69.6239 13.2001C71.6091 11.9297 73.8564 11.2912 76.3803 11.2912C78.9042 11.2912 81.1247 11.9297 83.058 13.1971L83.0579 13.1972L83.0699 13.2046C85.0457 14.4221 86.5598 16.2047 87.608 18.576L87.6079 18.5761L87.6131 18.5871C88.7105 20.9143 89.2664 23.6122 89.2664 26.6927C89.2664 31.416 88.0574 35.1433 85.6878 37.9266ZM111.588 42.388L111.588 42.388L111.592 42.3962C113.364 45.5699 115.847 48.0418 119.035 49.8047C122.226 51.5693 125.91 52.4438 130.074 52.4438C134.238 52.4438 137.923 51.5693 141.114 49.8047C144.303 48.0412 146.763 45.5675 148.485 42.3909C150.256 39.167 151.134 35.4757 151.134 31.3307V1.95704V1.45704H150.634H139.91H139.41V1.95704V30.5209C139.41 34.0704 138.544 36.8417 136.864 38.8876C135.194 40.8728 132.949 41.8734 130.074 41.8734C127.201 41.8734 124.957 40.8739 123.287 38.8907C121.654 36.8448 120.812 34.0722 120.812 30.5209V1.95704V1.45704H120.312H109.514H109.014V1.95704V31.3307C109.014 35.4744 109.868 39.1646 111.588 42.388ZM165.696 51.4719L165.698 51.4725C168.352 52.1205 171.129 52.4438 174.026 52.4438C179.915 52.4438 184.577 51.1026 187.949 48.3561C191.337 45.5974 193.015 41.7403 193.015 36.852C193.015 33.6925 192.335 31.0815 190.931 29.0606C189.56 27.0402 187.901 25.4866 185.952 24.4142C184.051 23.3687 181.662 22.3043 178.79 21.2197C178.789 21.2194 178.788 21.2192 178.788 21.2189L175.774 20.0483C175.771 20.0474 175.769 20.0464 175.767 20.0454C173.812 19.2179 172.438 18.4563 171.609 17.7682C170.853 17.1418 170.458 16.2623 170.458 15.0611C170.458 13.7086 171.014 12.6582 172.165 11.8655L172.165 11.8656L172.175 11.8581C173.34 11.0105 175.021 10.555 177.28 10.555C179.101 10.555 181.027 10.8412 183.06 11.4194L183.062 11.4202C185.145 11.9988 187.08 12.7935 188.867 13.8032L189.488 14.1542L189.606 13.4504L191.233 3.73282L191.3 3.33189L190.921 3.18435C186.334 1.39772 181.836 0.5 177.428 0.5C171.634 0.5 167.043 1.86758 163.719 4.66658C160.387 7.47344 158.734 11.3269 158.734 16.1653C158.734 19.1261 159.339 21.5854 160.59 23.5057L160.596 23.5135C161.863 25.3812 163.368 26.8567 165.111 27.9285L165.111 27.9286L165.12 27.934C166.825 28.932 169.067 29.9974 171.84 31.1309L171.847 31.1338L171.854 31.1365C172.236 31.2792 172.565 31.4197 172.841 31.5574L172.873 31.5732L172.907 31.5844C173.194 31.6796 173.454 31.774 173.69 31.8676C173.691 31.868 173.692 31.8684 173.693 31.8688L175.461 32.6024L175.47 32.6057C177.577 33.4351 179.081 34.201 180.013 34.8969L180.019 34.9018L180.026 34.9065C180.863 35.4894 181.291 36.3334 181.291 37.5146C181.291 38.9485 180.651 40.1003 179.296 40.9998C177.922 41.9116 176.104 42.3887 173.804 42.3887C171.793 42.3887 169.576 42.0314 167.149 41.3071C164.774 40.5347 162.495 39.4728 160.311 38.1202L159.623 37.6936L159.55 38.5005L158.663 48.3653L158.634 48.6837L158.911 48.8433C160.832 49.9508 163.096 50.825 165.696 51.4719ZM201.021 1.45704H200.521V1.95704V50.9867V51.4867H201.021H230.973H231.473V50.9867V41.7108V41.2108H230.973H212.097V30.5056H227.645H228.145V30.0056V21.0241V20.5241H227.645H212.097V11.7329H230.973H231.473V11.2329V1.95704V1.45704H230.973H201.021Z" fill="#F7F3EE" stroke="#F7F3EE"/>
</svg>
