<svg width="16" height="15" viewBox="0 0 16 15" fill="none" xmlns="http://www.w3.org/2000/svg">
<path fill-rule="evenodd" clip-rule="evenodd" d="M0 6.56284C0 2.93829 3.00465 0 6.71106 0C10.4175 0 13.4221 2.93829 13.4221 6.56284C13.4221 10.1874 10.4175 13.1257 6.71106 13.1257C3.00465 13.1257 0 10.1874 0 6.56284ZM12.3885 6.56284C12.3885 3.49656 9.84661 1.01085 6.71108 1.01085C3.57555 1.01085 1.0337 3.49656 1.0337 6.56284C1.0337 9.62912 3.57555 12.1148 6.71108 12.1148C9.84661 12.1148 12.3885 9.62912 12.3885 6.56284Z" fill="#123AC8"/>
<path d="M10.8352 10.8322C11.068 10.6039 11.4327 10.5827 11.69 10.7689L11.7637 10.831L14.8486 13.8399C15.1053 14.0903 15.1059 14.4968 14.8498 14.7479C14.617 14.9761 14.2523 14.9973 13.995 14.8111L13.9213 14.7491L10.8364 11.7401C10.5797 11.4897 10.5792 11.0832 10.8352 10.8322Z" fill="#123AC8"/>
</svg>
