<svg width="29" height="29" viewBox="0 0 29 29" fill="none" xmlns="http://www.w3.org/2000/svg">
<circle cx="14.5" cy="14.5" r="14" stroke="#FE4236"/>
<path d="M15.7778 7C15.7778 7 17.4889 7.15556 19.6667 9.33333C21.8445 11.5111 22.0001 13.2222 22.0001 13.2222" stroke="#123AC8" stroke-linecap="round"/>
<path d="M15.9387 9.75C15.9387 9.75 16.7087 9.96999 17.8636 11.1249C19.0186 12.2799 19.2386 13.0498 19.2386 13.0498" stroke="#123AC8" stroke-linecap="round"/>
<path d="M12.6959 9.57923L13.2007 10.4837C13.6562 11.3 13.4734 12.3708 12.7559 13.0883C12.7559 13.0883 12.7559 13.0883 12.7559 13.0883C12.7558 13.0884 11.8857 13.9587 13.4635 15.5365C15.0407 17.1136 15.9109 16.2449 15.9117 16.2441C15.9117 16.2441 15.9117 16.2441 15.9117 16.2441C16.6292 15.5266 17.7 15.3438 18.5163 15.7993L19.4208 16.3041C20.6533 16.992 20.7989 18.7205 19.7155 19.8039C19.0645 20.4549 18.267 20.9615 17.3854 20.9949C15.9013 21.0512 13.3809 20.6756 10.8527 18.1473C8.32443 15.6191 7.94883 13.0987 8.0051 11.6146C8.03852 10.733 8.54507 9.9355 9.19607 9.2845C10.2795 8.20109 12.008 8.34666 12.6959 9.57923Z" stroke="#123AC8" stroke-linecap="round"/>
</svg>
